<svg xmlns="http://www.w3.org/2000/svg" width="58.082" height="61.539" viewBox="0 0 58.082 61.539">
  <g id="Rally-Selected" transform="translate(-85.75 -20.883)">
    <path id="hurry" d="M14.243,0A12.243,12.243,0,1,0,26.487,12.243,12.262,12.262,0,0,0,14.243,0Zm0,2.449a9.795,9.795,0,1,1-9.795,9.795A9.776,9.776,0,0,1,14.243,2.449Zm-.019,2.432a1.224,1.224,0,0,0-1.205,1.241v5.366L8.8,13.6a1.224,1.224,0,0,0,1.1,2.19l4.72-2.36a1.224,1.224,0,0,0,.634-.469l.007-.01.029-.043,0-.007q.03-.048.055-.1a1.224,1.224,0,0,0,.124-.748V6.122a1.224,1.224,0,0,0-1.243-1.241ZM44.852,6.122a6.047,6.047,0,0,0-4.589,1.942,6.27,6.27,0,0,0-1.533,4.18,6.27,6.27,0,0,0,1.533,4.18,6.393,6.393,0,0,0,9.178,0,6.27,6.27,0,0,0,1.533-4.18,6.27,6.27,0,0,0-1.533-4.18A6.047,6.047,0,0,0,44.852,6.122Zm0,2.449a3.437,3.437,0,0,1,2.757,1.119,4.019,4.019,0,0,1,0,5.108,3.956,3.956,0,0,1-5.514,0,4.019,4.019,0,0,1,0-5.108A3.437,3.437,0,0,1,44.852,8.57ZM39.44,18.353l-.033,0a16.45,16.45,0,0,0-3.864.548l-.041.014-7.939,2.695-.062.024a3.544,3.544,0,0,0-2.028,1.906l.05-.108-3.412,6.578a3.707,3.707,0,0,0,.947,4.759l.033.024a3.777,3.777,0,0,0,5.45-1.275l.017-.029,2.6-5.1,2.788-1.09-2.628,8.066-.014.043a5.493,5.493,0,0,0,.265,3.807l-1.992,3.7-7.286-.552a4.172,4.172,0,1,0-.677,8.317h.007s2.571.185,5.158.368l3.573.253,1.2.084.349.022.1.007c.027,0-.042,0,.115,0a4.259,4.259,0,0,0,3.79-2.391L35.92,49l1.858-4.2,4.39,3.209L45.1,58.359a3.673,3.673,0,0,0,7.069-2L49.058,45.375l-.507.507a1.224,1.224,0,0,0,.3-1.253c-.007-.022,0,.006,0,0A5.624,5.624,0,0,0,47.092,42l-.029-.022L42.716,38.6l1.908-6.368.9,1.461.026.038a3.785,3.785,0,0,0,3.1,1.77h7.224a3.694,3.694,0,0,0,3.656-4.242q0-.019-.007-.038a3.843,3.843,0,0,0-3.771-3.066H50.8l-3.436-5.543,0,.007A9.416,9.416,0,0,0,39.44,18.353Zm.012,2.451a7.315,7.315,0,0,1,5.825,3.1l0,.007,3.795,6.122a1.224,1.224,0,0,0,1.043.579h5.631a1.394,1.394,0,0,1,1.358,1.076,1.264,1.264,0,0,1-1.236,1.373H48.647a1.274,1.274,0,0,1-1.062-.679l-2.3-3.757a1.224,1.224,0,0,0-2.217.289l-2.939,9.795a1.224,1.224,0,0,0,.421,1.318l4.986,3.867a3.3,3.3,0,0,1,.973,1.471l.007.022,3.3,11.643a1.225,1.225,0,0,1-2.358.667L44.409,46.939a1.224,1.224,0,0,0-.454-.655L34.667,39.5a3.082,3.082,0,0,1-1-3.405L37.078,25.6a1.224,1.224,0,0,0-1.609-1.521l-5.631,2.2a1.224,1.224,0,0,0-.646.583l-2.8,5.481a1.267,1.267,0,0,1-1.875.445,1.2,1.2,0,0,1-.265-1.59l.017-.031L27.7,24.561q.028-.054.05-.11c.1-.246.236-.369.665-.54l7.848-2.664A17.125,17.125,0,0,1,39.452,20.8ZM33.163,41.429l2.59,1.894-2.04,4.615a2.1,2.1,0,0,1-1.593,1.033l-.06,0-.34-.024-1.2-.084-3.57-.251c-2.584-.183-5.146-.368-5.151-.368a1.724,1.724,0,1,1,.3-3.434l8.874.672Z" transform="translate(84 21.133)" fill="#2081e2" stroke="#fff" stroke-width="0.5"/>
  </g>
</svg>
