<svg xmlns="http://www.w3.org/2000/svg" width="63" height="73.149" viewBox="0 0 63 73.149">
  <g id="Raffle-Default" transform="translate(-609 -537.371)" opacity="0.35">
    <g id="_4543_-_Giving_Vote" data-name="4543 - Giving Vote" transform="translate(609 537)">
      <g id="Layer_x0020_1" transform="translate(7.714 11.933)">
        <g id="_404059800">
          <path id="_404060184" d="M1035.07,1276.432a.972.972,0,0,0,1.348,1.4l8.11-7.824-.674-.7.677.7a.975.975,0,0,0,.025-1.379,1,1,0,0,0-.076-.071l-1.976-1.926a.972.972,0,0,0-1.356,1.394l1.309,1.276-7.387,7.127Z" transform="translate(-1010.957 -1239.685)" fill="#1f1f1f"/>
          <path id="_404060808" d="M380.057,953.243a.972.972,0,0,0,1.356-1.394l-7.007-6.823,0,0a.975.975,0,0,0-1.379.018h0l-16.93,16.93h0a.975.975,0,0,0,0,1.379q.024.024.05.047l2.738,2.765a.972.972,0,0,0,1.379-1.371l-2.1-2.125,15.577-15.577Z" transform="translate(-352.686 -927.871)" fill="#1f1f1f"/>
          <path id="_404060448" d="M868.256,661.125c3.175-3.067-1.514-3.5,4.861-9.88l-6.372-6.372L862.72,648.9c-3.081.686-7.761-.344-8.806.591-1.3,1.163-1.9,5.685-1.9,7.58" transform="translate(-833.772 -637.135)" fill="none" fill-rule="evenodd"/>
          <path id="_404059368" d="M836.563,629.41a.972.972,0,0,0,1.348,1.4,4.116,4.116,0,0,0,1.54-3.8c-.047-1.19-.1-2.65,3.336-6.09h0a.975.975,0,0,0,0-1.379l-.006-.005-6.366-6.366h0a.975.975,0,0,0-1.379,0l-.005.006-3.817,3.817a22.3,22.3,0,0,1-4.386.132c-2.007-.067-3.741-.124-4.581.628a6.757,6.757,0,0,0-1.563,3.263,23.651,23.651,0,0,0-.659,5.041.975.975,0,0,0,1.95,0,21.44,21.44,0,0,1,.6-4.568,5.258,5.258,0,0,1,.969-2.288c.258-.232,1.634-.186,3.225-.133a22.023,22.023,0,0,0,5.055-.215.971.971,0,0,0,.568-.278h0l3.336-3.336,5,5c-3.349,3.566-3.279,5.364-3.221,6.845A2.515,2.515,0,0,1,836.563,629.41Z" transform="translate(-802.753 -606.121)" fill="#1f1f1f"/>
          <path id="_404060040" d="M1000.293,1122.661a.972.972,0,1,0-1.371-1.379l-8,7.932a.93.93,0,0,1-.657.266.909.909,0,0,1-.914-.915.926.926,0,0,1,.266-.656l5.93-5.959a.972.972,0,0,0-1.379-1.371l-5.93,5.959a2.867,2.867,0,0,0,4.055,4.055Z" transform="translate(-965.03 -1098.067)" fill="#1f1f1f"/>
          <path id="_404059944" d="M254.155,1592.99a.975.975,0,0,0,0,1.95h35.5a.975.975,0,0,0,0-1.95Z" transform="translate(-253.18 -1556.362)" fill="#1f1f1f"/>
          <path id="_404059680" d="M1349.141,404.455l-8.411-8.411h0a.975.975,0,0,1,0-1.379l.006-.005,3.473-3.473h0a.975.975,0,0,1,1.379,0l.005.006L1354,399.6h0a.975.975,0,0,1,0,1.379l-.006.005-3.473,3.473h0a.975.975,0,0,1-1.379,0Zm-6.343-9.1,7.038,7.037,2.1-2.1-7.037-7.037Z" transform="translate(-1307.315 -390.902)" fill="#1f1f1f"/>
        </g>
      </g>
      <rect id="Rectangle_17" data-name="Rectangle 17" width="63" height="62" transform="translate(0 0.37)" fill="none"/>
    </g>
    <path id="Path_2" data-name="Path 2" d="M-1594.555,20049.74v22.836h35.931v-22.836" transform="translate(2211.999 -19462.906)" fill="none" stroke="#1f1f1f" stroke-linecap="round" stroke-linejoin="round" stroke-width="1.7"/>
    <path id="Path_3" data-name="Path 3" d="M-1583.945,20072.658l-4.486-10.2,9.909-4.818,7.421,15.021" transform="translate(2211.351 -19462.848)" fill="none" stroke="#1f1f1f" stroke-linejoin="round" stroke-width="1.7"/>
    <path id="Path_4" data-name="Path 4" d="M-1571.225,20069.344l4.041-7.039,7.7,3.66-3.681,7.746" transform="translate(2209.528 -19464.236)" fill="none" stroke="#1f1f1f" stroke-linejoin="round" stroke-width="1.7"/>
    <path id="Path_5" data-name="Path 5" d="M-1568.3,20064.67" transform="translate(2209.218 -19464.486)" fill="none" stroke="#707070" stroke-width="1"/>
    <path id="Path_6" data-name="Path 6" d="M-1561.943,20063.842l-1.12-5.594,7.508-1.391" transform="translate(2208.663 -19464.258)" fill="none" stroke="#1f1f1f" stroke-linecap="round" stroke-linejoin="round" stroke-width="1.7"/>
    <path id="Path_7" data-name="Path 7" d="M-1594.555,20067.039l7.168,1.527" transform="translate(2211.999 -19464.738)" fill="none" stroke="#1f1f1f" stroke-linecap="round" stroke-width="1.7"/>
    <path id="Path_8" data-name="Path 8" d="M-1587.393,20055.164a2.507,2.507,0,0,1,2.84,2.887" transform="translate(2213 -19465.971)" fill="none" stroke="#1f1f1f" stroke-linecap="round" stroke-width="1.7"/>
    <path id="Path_9" data-name="Path 9" d="M-1576.425,20056.686l-3.6,3.432" transform="translate(2215.327 -19467.307)" fill="none" stroke="#1f1f1f" stroke-linecap="round" stroke-width="1.7"/>
  </g>
</svg>
